<svg xmlns="http://www.w3.org/2000/svg" xmlns:xlink="http://www.w3.org/1999/xlink" width="12" height="17" viewBox="0 0 12 17"><defs><path id="dkyla" d="M888.98 748.8l6.7 5.57c.6.5.87 1.22.83 1.94.04.71-.24 1.44-.83 1.93l-6.7 5.57c-1 .83-2.48.7-3.32-.28-.83-1-.7-2.46.3-3.3l4.72-3.92-4.73-3.94c-1-.83-1.12-2.3-.29-3.28a2.37 2.37 0 0 1 3.32-.3z"/><path id="dkylb" d="M881 769v-26h19v26zm7.98-19.2c-1-.83-2.48-.7-3.32.29-.83.98-.7 2.45.3 3.28l4.72 3.94-4.73 3.93c-1 .83-1.12 2.3-.29 3.29a2.37 2.37 0 0 0 3.32.28l6.7-5.57c.6-.5.87-1.22.83-1.93a2.31 2.31 0 0 0-.83-1.94l-6.7-5.57z"/><filter id="dkylc" width="200%" height="200%" x="-50%" y="-50%"><feGaussianBlur in="SourceGraphic" result="FeGaussianBlur1046Out" stdDeviation="1 1"/></filter><mask id="dkyld"><use fill="#fff" xlink:href="#dkyla"/></mask></defs><g><g transform="translate(-885 -748)"><use fill="#fff" xlink:href="#dkyla"/><use fill="#95a5a6" fill-opacity=".45" xlink:href="#dkyla"/><use fill-opacity=".22" stroke="#000" stroke-opacity=".22" stroke-width="0" filter="url(#dkylc)" mask="url(&quot;#dkyld&quot;)" xlink:href="#dkylb"/></g></g></svg>