<svg xmlns="http://www.w3.org/2000/svg" width="14" height="13" viewBox="0 0 14 13">
  <metadata><?xpacket begin="﻿" id="W5M0MpCehiHzreSzNTczkc9d"?>
<x:xmpmeta xmlns:x="adobe:ns:meta/" x:xmptk="Adobe XMP Core 5.6-c138 79.159824, 2016/09/14-01:09:01        ">
   <rdf:RDF xmlns:rdf="http://www.w3.org/1999/02/22-rdf-syntax-ns#">
      <rdf:Description rdf:about=""/>
   </rdf:RDF>
</x:xmpmeta>
                                                                                                    
                                                                                                    
                                                                                                    
                                                                                                    
                                                                                                    
                                                                                                    
                                                                                                    
                                                                                                    
                                                                                                    
                                                                                                    
                                                                                                    
                                                                                                    
                                                                                                    
                                                                                                    
                                                                                                    
                                                                                                    
                                                                                                    
                                                                                                    
                                                                                                    
                                                                                                    
                           
<?xpacket end="w"?></metadata>
<defs>
    <style>
      .cls-1 {
        fill: #95a5a6;
        fill-rule: evenodd;
      }
    </style>
  </defs>
  <path id="Дата" class="cls-1" d="M1.724,0.812H13.1a0.813,0.813,0,0,1,.813.813V12.188A0.813,0.813,0,0,1,13.1,13H1.724a0.813,0.813,0,0,1-.813-0.812V1.625A0.813,0.813,0,0,1,1.724.812Zm0,0.813H13.1V12.188H1.724V1.625ZM3.756,0a0.406,0.406,0,0,1,.406.406V2.031a0.406,0.406,0,0,1-.813,0V0.406A0.406,0.406,0,0,1,3.756,0Zm7.315,0a0.406,0.406,0,0,1,.406.406V2.031a0.406,0.406,0,0,1-.813,0V0.406A0.406,0.406,0,0,1,11.071,0ZM8.632,0a0.406,0.406,0,0,1,.406.406V2.031a0.406,0.406,0,0,1-.813,0V0.406A0.406,0.406,0,0,1,8.632,0ZM6.194,0A0.406,0.406,0,0,1,6.6.406V2.031a0.406,0.406,0,0,1-.813,0V0.406A0.406,0.406,0,0,1,6.194,0ZM2.943,4.063H4.569V5.688H2.943V4.063Zm2.438,0H7.007V5.688H5.381V4.063Zm2.438,0H9.445V5.688H7.82V4.063Zm2.438,0h1.625V5.688H10.258V4.063ZM2.943,6.5H4.569V8.125H2.943V6.5Zm2.438,0H7.007V8.125H5.381V6.5Zm2.438,0H9.445V8.125H7.82V6.5Zm2.438,0h1.625V8.125H10.258V6.5ZM2.943,8.938H4.569v1.625H2.943V8.938Zm2.438,0H7.007v1.625H5.381V8.938Zm2.438,0H9.445v1.625H7.82V8.938Zm2.438,0h1.625v1.625H10.258V8.938Z"/>
</svg>
