<svg xmlns="http://www.w3.org/2000/svg" xmlns:xlink="http://www.w3.org/1999/xlink" width="32" height="33" viewBox="0 0 32 33"><defs><path id="jgeya" d="M292.51 444.13v26.8c0 1.15-.94 2.07-2.1 2.07h-27.3c-1.17 0-2.11-.92-2.11-2.06v-26.81c0-1.14.94-2.07 2.1-2.07h6.3V440h2.1v2.06H282V440h2.1v2.06h7.36c1.16 0 1.05.93 1.05 2.07zm-3.15 0h-5.25v2.06H282v-2.06h-10.5v2.06h-2.1v-2.06h-5.26c-.58 0-1.05.46-1.05 1.03v3.1h27.31v-3.1c0-.57-.47-1.03-1.05-1.03zM263.1 469.9c0 .57.47 1.03 1.05 1.03h25.21c.58 0 1.05-.46 1.05-1.03v-19.6h-27.3zm8.4-15.47v6.19h-6.3v-6.2zm-4.2 2.06v2.06h2.1v-2.06zm12.6-2.06v6.19h-6.3v-6.2zm-4.2 2.06v2.06h2.1v-2.06zm12.61-2.06v6.19h-6.3v-6.2zm-4.2 2.06v2.06h2.1v-2.06zm-12.6 6.19v6.19h-6.3v-6.2zm-4.2 2.06v2.06h2.1v-2.06zm12.6-2.06v6.19h-6.3v-6.2zm-4.2 2.06v2.06h2.1v-2.06zm12.6-2.06v6.19h-6.3v-6.2zm-4.2 2.06v2.06h2.1v-2.06z"/></defs><g><g transform="translate(-261 -440)"><use fill="#ff8263" xlink:href="#jgeya"/></g></g></svg>