<svg xmlns="http://www.w3.org/2000/svg" xmlns:xlink="http://www.w3.org/1999/xlink" width="26" height="25" viewBox="0 0 26 25"><defs><path id="jsgca" d="M25.32 436.55h3.1v-.77a.78.78 0 1 1 1.55 0v.77h3.1v-.77a.78.78 0 1 1 1.55 0v.77h3.1v-.77a.78.78 0 1 1 1.55 0v.77h3.1v-.77a.78.78 0 1 1 1.54 0v.77h3.1c.86 0 1.55.7 1.55 1.56v20.18c0 .86-.7 1.56-1.55 1.56H25.32c-.86 0-1.55-.7-1.55-1.56v-20.18c0-.86.7-1.56 1.55-1.56zm0 21.74h21.7v-20.18h-3.1v.77a.78.78 0 1 1-1.56 0v-.77h-3.1v.77a.78.78 0 1 1-1.54 0v-.77h-3.1v.77a.78.78 0 1 1-1.55 0v-.77h-3.1v.77a.78.78 0 1 1-1.55 0v-.77h-3.1zm2.32-15.53h3.1v3.11h-3.1zm4.65 0h3.1v3.11h-3.1zm4.65 0h3.1v3.11h-3.1zm4.65 0h3.1v3.11h-3.1zm-13.95 4.66h3.1v3.1h-3.1zm4.65 0h3.1v3.1h-3.1zm4.65 0h3.1v3.1h-3.1zm4.65 0h3.1v3.1h-3.1zm-13.95 4.66h3.1v3.1h-3.1zm4.65 0h3.1v3.1h-3.1zm4.65 0h3.1v3.1h-3.1zm4.65 0h3.1v3.1h-3.1z"/></defs><g><g transform="translate(-23 -435)"><use fill="#f56f6c" xlink:href="#jsgca"/></g></g></svg>