<svg xmlns="http://www.w3.org/2000/svg" xmlns:xlink="http://www.w3.org/1999/xlink" width="19" height="18" viewBox="0 0 19 18"><defs><path id="ns25a" d="M386.79 656.13h2.25v-.57a.56.56 0 0 1 1.13 0v.57h2.25v-.57a.56.56 0 0 1 1.12 0v.57h2.26v-.57a.56.56 0 0 1 1.12 0v.57h2.25v-.57a.56.56 0 0 1 1.13 0v.57h2.25c.62 0 1.13.5 1.13 1.12v14.62c0 .63-.5 1.13-1.13 1.13h-15.76c-.62 0-1.13-.5-1.13-1.13v-14.62c0-.62.5-1.12 1.13-1.12zm0 15.74h15.76v-14.62h-2.25v.56a.56.56 0 0 1-1.13 0v-.56h-2.25v.56a.56.56 0 0 1-1.12 0v-.56h-2.26v.56a.56.56 0 0 1-1.12 0v-.56h-2.25v.56a.56.56 0 0 1-1.13 0v-.56h-2.25zm1.69-11.24h2.25v2.24h-2.25zm3.38 0h2.25v2.24h-2.25zm3.37 0h2.25v2.24h-2.25zm3.38 0h2.25v2.24h-2.25zM388.48 664h2.25v2.25h-2.25zm3.38 0h2.25v2.25h-2.25zm3.37 0h2.25v2.25h-2.25zm3.38 0h2.25v2.25h-2.25zm-10.13 3.37h2.25v2.26h-2.25zm3.38 0h2.25v2.26h-2.25zm3.37 0h2.25v2.26h-2.25zm3.38 0h2.25v2.26h-2.25z"/></defs><g><g transform="translate(-385 -655)"><use fill="#95a5a6" xlink:href="#ns25a"/><use fill="#e47977" xlink:href="#ns25a"/></g></g></svg>