<svg xmlns="http://www.w3.org/2000/svg" width="16" height="16" viewBox="0 0 16 16">
  <defs>
    <style>
      .cls-1 {
        fill: #8a949b;
        stroke: #8a949b;
        stroke-linejoin: round;
        stroke-width: 1px;
        fill-rule: evenodd;
      }
    </style>
  </defs>
  <path id="Check" class="cls-1" d="M7.376,12.182A0.711,0.711,0,0,1,7,12.076L4.114,7.483a0.652,0.652,0,0,1-.208-0.922,0.711,0.711,0,0,1,.958-0.2l2.889,4.593a0.652,0.652,0,0,1,.208.922A0.7,0.7,0,0,1,7.376,12.182Zm0,0a0.706,0.706,0,0,1-.382-0.111,0.651,0.651,0,0,1-.2-0.924l4.929-7.154a0.71,0.71,0,0,1,.96-0.188,0.652,0.652,0,0,1,.2.924L7.955,11.884A0.7,0.7,0,0,1,7.376,12.182Z"/>
</svg>
