<svg xmlns="http://www.w3.org/2000/svg" xmlns:xlink="http://www.w3.org/1999/xlink" width="19" height="18" viewBox="0 0 19 18"><defs><path id="5nsaa" d="M394.67 724c-4.97 0-9-4.04-9-9a9.01 9.01 0 0 1 18 0c0 4.96-4.03 9-9 9zm.02-16.53a7.55 7.55 0 0 0-7.55 7.53 7.55 7.55 0 0 0 15.1 0 7.55 7.55 0 0 0-7.55-7.53zm0 9.03a1.5 1.5 0 0 1-.68-2.84 10.3 10.3 0 0 1-.07-1.28c0-1.87.33-3.38.75-3.38.41 0 .75 1.51.75 3.38 0 .5-.03.93-.07 1.28.27.14.49.35.63.61l.57-.02c1.45 0 2.63.34 2.63.75s-1.18.75-2.63.75c-.21 0-.4 0-.57-.02a1.5 1.5 0 0 1-1.31.77z"/></defs><g><g transform="translate(-385 -706)"><use fill="#95a5a6" xlink:href="#5nsaa"/><use fill="#e47977" xlink:href="#5nsaa"/></g></g></svg>