<svg xmlns="http://www.w3.org/2000/svg" width="15" height="14" viewBox="0 0 15 14">
  <metadata><?xpacket begin="﻿" id="W5M0MpCehiHzreSzNTczkc9d"?>
<x:xmpmeta xmlns:x="adobe:ns:meta/" x:xmptk="Adobe XMP Core 5.6-c138 79.159824, 2016/09/14-01:09:01        ">
   <rdf:RDF xmlns:rdf="http://www.w3.org/1999/02/22-rdf-syntax-ns#">
      <rdf:Description rdf:about=""/>
   </rdf:RDF>
</x:xmpmeta>
                                                                                                    
                                                                                                    
                                                                                                    
                                                                                                    
                                                                                                    
                                                                                                    
                                                                                                    
                                                                                                    
                                                                                                    
                                                                                                    
                                                                                                    
                                                                                                    
                                                                                                    
                                                                                                    
                                                                                                    
                                                                                                    
                                                                                                    
                                                                                                    
                                                                                                    
                                                                                                    
                           
<?xpacket end="w"?></metadata>
<defs>
    <style>
      .cls-1 {
        fill: #17a14b;
        fill-rule: evenodd;
      }
    </style>
  </defs>
  <path class="cls-1" d="M7.963,14a7,7,0,1,1,7-7A7.009,7.009,0,0,1,7.963,14ZM7.976,1.142A5.858,5.858,0,1,0,13.847,7,5.871,5.871,0,0,0,7.976,1.142ZM9.146,7A1.169,1.169,0,1,1,7.976,5.833,1.168,1.168,0,0,1,9.146,7Zm2.339,0c0,0.322-.916.583-2.046,0.583S7.976,7.322,7.976,7s0.332-.583,1.462-0.583S11.484,6.678,11.484,7ZM8.561,4.958C8.561,6.408,8.3,7,7.976,7S7.392,6.408,7.392,4.958s0.261-2.625.585-2.625S8.561,3.508,8.561,4.958Z"/>
</svg>
