<svg xmlns="http://www.w3.org/2000/svg" width="19" height="19" viewBox="0 0 19 19">
  <defs>
    <style>
      .cls-1 {
        fill: #fff;
        fill-rule: evenodd;
      }
    </style>
  </defs>
  <path id="Shape_6_копия_6" data-name="Shape 6 копия 6" class="cls-1" d="M6.031,18.776a0.8,0.8,0,0,1-.56-0.228,0.778,0.778,0,0,1-.12-0.962l1.627-2.661C2.925,14.078,0,11.241,0,7.979,0,4,4.261.77,9.5,0.77S19,4,19,7.979c0,2.972-2.335,5.587-5.957,6.687l-6.6,4A0.811,0.811,0,0,1,6.031,18.776ZM9.5,2.339c-4.363,0-7.912,2.531-7.912,5.64,0,2.773,2.908,5.169,6.765,5.573a0.8,0.8,0,0,1,.627.432,0.772,0.772,0,0,1-.032.754l-0.551.9L12.3,13.276a0.789,0.789,0,0,1,.188-0.082c2.992-.879,4.924-2.926,4.924-5.214C17.413,4.869,13.862,2.339,9.5,2.339ZM14.226,7.8H6.285a0.761,0.761,0,1,1,0-1.52h7.941A0.761,0.761,0,1,1,14.226,7.8Zm-2.387,2.377H6.3a0.784,0.784,0,1,1,0-1.569h5.539A0.784,0.784,0,1,1,11.839,10.181Z"/>
</svg>
