<svg xmlns="http://www.w3.org/2000/svg" xmlns:xlink="http://www.w3.org/1999/xlink" width="23" height="22" viewBox="0 0 23 22"><defs><path id="c0wya" d="M835.55 872.54a.96.96 0 0 1-.66-.27.92.92 0 0 1-.15-1.14l1.94-3.15c-4.82-1-8.3-4.36-8.3-8.22 0-4.7 5.07-8.53 11.3-8.53 6.24 0 11.32 3.83 11.32 8.53 0 3.52-2.78 6.61-7.1 7.92l-7.85 4.72a.97.97 0 0 1-.5.14zm4.13-19.46c-5.2 0-9.42 3-9.42 6.68 0 3.28 3.46 6.12 8.06 6.6.32.03.6.22.74.5a.9.9 0 0 1-.03.9l-.66 1.07 4.65-2.8a.94.94 0 0 1 .23-.1c3.56-1.04 5.86-3.46 5.86-6.17 0-3.68-4.23-6.68-9.43-6.68zm5.63 6.47h-9.45a.93.93 0 0 1-.96-.9c0-.5.43-.9.96-.9h9.45c.53 0 .96.4.96.9s-.43.9-.96.9zm-2.84 2.82h-6.6a.94.94 0 0 1-.95-.93c0-.51.43-.93.95-.93h6.6c.53 0 .96.42.96.93s-.43.93-.96.93z"/></defs><g><g transform="translate(-828 -851)"><use fill="#95a5a6" xlink:href="#c0wya"/><use fill="#fea192" xlink:href="#c0wya"/></g></g></svg>