<svg xmlns="http://www.w3.org/2000/svg" xmlns:xlink="http://www.w3.org/1999/xlink" width="19" height="19" viewBox="0 0 19 19"><defs><path id="p821a" d="M463.08 1093.15a.78.78 0 0 1-.66-1.18l1.58-2.63c-3.91-.83-6.74-3.64-6.74-6.86 0-3.93 4.12-7.12 9.17-7.12 5.06 0 9.17 3.2 9.17 7.12 0 2.94-2.25 5.52-5.75 6.6l-6.37 3.95a.77.77 0 0 1-.4.12zm3.35-16.24c-4.2 0-7.63 2.5-7.63 5.57 0 2.74 2.8 5.1 6.52 5.5a.78.78 0 0 1 .57 1.17l-.52.9 3.77-2.34a.76.76 0 0 1 .18-.08c2.89-.87 4.75-2.89 4.75-5.15 0-3.07-3.43-5.57-7.64-5.57zm4.56 5.4h-7.66a.76.76 0 0 1-.77-.75c0-.42.34-.75.77-.75h7.66c.43 0 .78.33.78.75 0 .41-.35.75-.78.75zm-2.3 2.35h-5.35a.77.77 0 0 1 0-1.55h5.35a.77.77 0 0 1 0 1.55z"/></defs><g><g transform="translate(-457 -1075)"><use fill="#95a5a6" xlink:href="#p821a"/></g></g></svg>