<svg xmlns="http://www.w3.org/2000/svg" xmlns:xlink="http://www.w3.org/1999/xlink" width="14" height="14" viewBox="0 0 14 14"><defs><path id="78faa" d="M211.04 236a1 1 0 0 1-.8-.47.99.99 0 0 1-.14-.89 170 170 0 0 1 2.12-4.48l.05-.09 7.23-7.43c.63-.64 1.75-.61 2.4.05l1.14 1.15c.67.69.67 1.68 0 2.36l-7.25 7.47-.08.04-4.3 2.2a.8.8 0 0 1-.37.08zm2.02-5.1l-1.34 2.82c-.22.45.15.79.59.57l2.71-1.39 5.17-5.32-1.95-2zm9.24-5.49c.22-.23.22-.5-.01-.72l-1.16-1.18c-.23-.24-.61-.26-.81-.06l-1.3 1.34 1.95 2z"/></defs><g><g transform="translate(-210 -222)"><use fill="#fff" xlink:href="#78faa"/></g></g></svg>