<svg xmlns="http://www.w3.org/2000/svg" xmlns:xlink="http://www.w3.org/1999/xlink" width="16" height="16" viewBox="0 0 16 16"><defs><path id="1o9fa" d="M908.75 16.78h7.35c2.19 0 3.97 1.79 3.97 3.98v7.33c0 2.2-1.78 3.98-3.97 3.98h-7.35a3.98 3.98 0 0 1-3.98-3.98v-2.36h5.75c.36 0 .6.29.6.64v1.2c0 .15.34.25.56.03l2.66-2.74c.17-.2.19-.62-.02-.85l-2.62-2.74c-.21-.22-.57-.16-.57 0v1.24c0 .36-.25.61-.6.61l-5.76-.04v-2.32c0-2.2 1.79-3.98 3.98-3.98zm-.07 1.2a2.74 2.74 0 0 0-2.74 2.74v1.17h3.96v-.48c0-.83.58-1.44 1.42-1.44.5 0 1 .21 1.32.56l2.53 2.61c.33.37.47.83.47 1.31 0 .49-.13.95-.45 1.3l-2.57 2.61c-.3.33-.8.54-1.3.54-.83 0-1.4-.6-1.4-1.44v-.54h-3.98v1.25c0 1.51 1.23 2.74 2.74 2.74h7.45a2.74 2.74 0 0 0 2.74-2.74v-7.45a2.74 2.74 0 0 0-2.74-2.74z"/></defs><g><g transform="translate(-904 -16)"><use fill="#fff" xlink:href="#1o9fa"/></g></g></svg>