<svg xmlns="http://www.w3.org/2000/svg" xmlns:xlink="http://www.w3.org/1999/xlink" width="19" height="19" viewBox="0 0 19 19"><defs><path id="z50ya" d="M640.5 1092.52h-17.98l-.07-.7c-.01-.17-.35-4.18 1.6-6.35.82-.9 1.9-1.37 3.2-1.37h.36l.23.28c1 1.2 2.04 2.04 3.73 2.04 1.65 0 2.54-.78 3.59-2.06l.23-.28h.35c1.55 0 2.77.52 3.63 1.56 1.87 2.24 1.27 6.07 1.24 6.23zm-16.67-1.46h15.4c.07-1.08.05-3.2-.99-4.48a2.88 2.88 0 0 0-2.14-1.03c-1.06 1.27-2.39 2.37-4.6 2.37-2.26 0-3.63-1.14-4.66-2.34-.73.07-1.3.36-1.76.88-1.1 1.24-1.25 3.45-1.25 4.6zm7.88-6.27c-2.67 0-4.55-4.2-4.55-6.47a4.44 4.44 0 0 1 4.55-4.32c2.51 0 4.55 1.93 4.55 4.32 0 2.27-1.87 6.47-4.55 6.47zm-.03-9.4c-1.75 0-3.18 1.3-3.18 2.9 0 1.81 1.63 5.17 3.18 5.17 1.54 0 3.17-3.36 3.17-5.17 0-1.6-1.42-2.9-3.17-2.9z"/></defs><g><g transform="translate(-622 -1074)"><use fill="#95a5a6" xlink:href="#z50ya"/></g></g></svg>