<svg xmlns="http://www.w3.org/2000/svg" xmlns:xlink="http://www.w3.org/1999/xlink" width="41" height="27" viewBox="0 0 41 27"><defs><path id="4njta" d="M284.97 462.74a8.98 8.98 0 0 0 2.85 5.26c-2.39 0-5.86-.72-8.24-1.93-1.73.6-3.65.95-5.67.95-7.68 0-13.91-4.85-13.91-10.84 0-5.98 6.23-10.83 13.91-10.83 1.47 0 2.89.18 4.22.51-.33.91-.51 1.87-.54 2.86a14.7 14.7 0 0 0-3.68-.46c-6.05 0-10.98 3.55-10.98 7.92 0 4.38 4.93 7.93 10.98 7.93 1.63 0 3.2-.26 4.7-.78l1.18-.41 1.12.57c.4.2.85.39 1.33.56-.07-.29-.12-.58-.17-.88l-.21-1.42.7-.71c1.34-.3 2.83-.77 4.21-1.32l.26.05a10.47 10.47 0 0 1-2.06 2.97zM301 448.98c0 4.4-4.59 7.98-10.25 7.98-1.49 0-2.9-.25-4.17-.7-1.76.9-4.32 1.43-6.08 1.43a6.63 6.63 0 0 0 2.1-3.88 6.9 6.9 0 0 1-2.1-4.83c0-4.4 4.59-7.98 10.25-7.98s10.25 3.57 10.25 7.98zm-2.93 0c0-2.8-3.28-5.08-7.32-5.08-4.04 0-7.32 2.28-7.32 5.08 0 2.8 3.28 5.08 7.32 5.08 4.04 0 7.32-2.27 7.32-5.08z"/></defs><g><g transform="translate(-260 -441)"><use fill="#e97b79" xlink:href="#4njta"/></g></g></svg>