<svg xmlns="http://www.w3.org/2000/svg" xmlns:xlink="http://www.w3.org/1999/xlink" width="30" height="20" viewBox="0 0 30 20"><defs><path id="uj90a" d="M41.56 653.03c.23 1.5.9 2.66 2.04 3.8-1.7 0-4.18-.52-5.88-1.4-1.23.44-2.6.69-4.04.69-5.47 0-9.9-3.5-9.9-7.83s4.43-7.83 9.9-7.83c1.05 0 2.06.13 3.01.37a6.7 6.7 0 0 0-.39 2.06c-.82-.21-1.7-.33-2.62-.33-4.31 0-7.82 2.57-7.82 5.73 0 3.16 3.5 5.73 7.82 5.73 1.16 0 2.29-.19 3.35-.56l.85-.3.8.4c.28.15.6.29.94.42a9.12 9.12 0 0 1-.12-.64l-.15-1.03.5-.51c.95-.21 2.01-.56 3-.95l.18.03c-.35.78-.84 1.5-1.47 2.15zM53 643.08c0 3.19-3.27 5.77-7.3 5.77a8.95 8.95 0 0 1-2.98-.5 10.6 10.6 0 0 1-4.33 1.03 4.82 4.82 0 0 0 1.5-2.8 5.02 5.02 0 0 1-1.5-3.5c0-3.19 3.27-5.77 7.3-5.77 4.04 0 7.31 2.58 7.31 5.77zm-2.09 0c0-2.03-2.33-3.67-5.22-3.67-2.88 0-5.21 1.64-5.21 3.67 0 2.03 2.33 3.67 5.21 3.67 2.89 0 5.22-1.64 5.22-3.67z"/></defs><g><g transform="translate(-23 -637)"><use fill="#e97b79" xlink:href="#uj90a"/></g></g></svg>