<svg xmlns="http://www.w3.org/2000/svg" xmlns:xlink="http://www.w3.org/1999/xlink" width="22" height="22" viewBox="0 0 22 22"><defs><path id="2e8qa" d="M44.58 486.12v16.7a2.28 2.28 0 0 1-2.28 2.28H25.6a2.28 2.28 0 0 1-2.27-2.28v-16.7a2.28 2.28 0 0 1 2.28-2.28h16.7a2.28 2.28 0 0 1 2.27 2.28zm-1.52 0a.76.76 0 0 0-.76-.76H25.6a.76.76 0 0 0-.75.76v16.7c0 .42.34.76.76.76h16.7c.4 0 .75-.34.75-.76zm-10.62 12.9a3.04 3.04 0 1 1-6.08 0 3.04 3.04 0 0 1 6.08 0zm-1.52 0a1.52 1.52 0 1 0-3.04 0 1.52 1.52 0 0 0 3.04 0zm6.07 3.04h-1.52a9.12 9.12 0 0 0-9.1-9.1v-1.53c5.85 0 10.62 4.77 10.62 10.63zm3.8 0h-1.52c0-7.12-5.8-12.9-12.9-12.9v-1.52c7.94 0 14.41 6.47 14.41 14.42z"/></defs><g><g transform="translate(-23 -483)"><use fill="#95a5a6" xlink:href="#2e8qa"/></g></g></svg>