<svg xmlns="http://www.w3.org/2000/svg" xmlns:xlink="http://www.w3.org/1999/xlink" width="32" height="32" viewBox="0 0 32 32"><defs><path id="sjgea" d="M290 440.43v25.14c0 1.9-1.54 3.43-3.43 3.43h-25.14a3.43 3.43 0 0 1-3.43-3.43v-25.14a3.43 3.43 0 0 1 3.43-3.43h25.14c1.9 0 3.43 1.54 3.43 3.43zm-2.29 0c0-.63-.5-1.14-1.14-1.14h-25.14c-.63 0-1.14.5-1.14 1.14v25.14c0 .63.5 1.14 1.14 1.14h25.14c.63 0 1.14-.5 1.14-1.14zm-16 19.43a4.58 4.58 0 1 1-9.15-.01 4.58 4.58 0 0 1 9.15 0zm-2.28 0a2.29 2.29 0 1 0-4.57 0 2.29 2.29 0 0 0 4.57 0zm9.14 4.57h-2.28c0-7.56-6.16-13.72-13.72-13.72v-2.28c8.82 0 16 7.18 16 16zm5.72 0H282A19.45 19.45 0 0 0 262.57 445v-2.29a21.74 21.74 0 0 1 21.72 21.72z"/></defs><g><g transform="translate(-258 -437)"><use fill="#ef7e7c" xlink:href="#sjgea"/></g></g></svg>