<svg xmlns="http://www.w3.org/2000/svg" xmlns:xlink="http://www.w3.org/1999/xlink" width="21" height="21" viewBox="0 0 21 21"><defs><path id="wogga" d="M31.63 609.8c-.6 0-1.08-.16-1.4-.49a.84.84 0 0 1-.23-.74c.03-.15.6-3.87-3.85-8.35-2.03-2.05-2.38-6.45.2-9.05a6.18 6.18 0 0 1 4.44-1.78c1.73 0 3.41.66 4.5 1.75a12.37 12.37 0 0 0 8.3 3.79c.22 0 .5.08.65.24 1.28 1.3-.38 5.21-2.31 8.06a2.95 2.95 0 0 1-.62 3.22 2.92 2.92 0 0 1-3.14.63c-2.2 1.54-4.92 2.72-6.54 2.72zm-.84-18.73c-1.29 0-2.45.46-3.27 1.28-1.88 1.9-1.65 5.21-.2 6.68 3.95 4 4.4 7.59 4.37 9.1 1.6-.05 5.3-1.86 7.32-3.89 2.31-2.34 4.06-6.38 4.06-7.67-1.55-.11-5.5-.76-8.95-4.24a4.73 4.73 0 0 0-3.33-1.26z"/></defs><g><g transform="translate(-24 -589)"><use fill="#95a5a6" xlink:href="#wogga"/></g></g></svg>