<svg xmlns="http://www.w3.org/2000/svg" xmlns:xlink="http://www.w3.org/1999/xlink" width="23" height="14" viewBox="0 0 23 14"><defs><path id="tqufa" d="M418.86 1129.76s3.31-5.76 9.57-5.76 9.58 5.76 9.58 5.76c.68.77 1.99 1.24 1.99 1.24s-1.31.47-2 1.24c0 0-3.31 5.76-9.57 5.76s-9.57-5.76-9.57-5.76c-.68-.77-1.86-1.24-1.86-1.24s1.18-.47 1.86-1.24zm6.57 1.25a3.1 3.1 0 0 0 3.06 3.14 3.1 3.1 0 0 0 3.05-3.14 3.1 3.1 0 0 0-3.05-3.15 3.1 3.1 0 0 0-3.06 3.15zm3.07-1.57c.85 0 1.53.7 1.53 1.56 0 .87-.68 1.57-1.53 1.57-.84 0-1.52-.7-1.52-1.57 0-.86.68-1.56 1.52-1.56z"/></defs><g><g transform="translate(-417 -1124)"><use fill="#95a5a6" xlink:href="#tqufa"/></g></g></svg>