<?xml version="1.0" encoding="utf-8"?>
<!-- Generator: Adobe Illustrator 22.0.0, SVG Export Plug-In . SVG Version: 6.00 Build 0)  -->
<svg version="1.1" id="Слой_1" xmlns="http://www.w3.org/2000/svg" xmlns:xlink="http://www.w3.org/1999/xlink" x="0px" y="0px"
	 viewBox="0 0 15 15" style="enable-background:new 0 0 15 15;" xml:space="preserve">
<style type="text/css">
	.st0{fill:#FFFFFF;}
</style>
<path class="st0" d="M14.3,12.2l-2.7-2.7c1.4-2.3,1.1-5.3-0.9-7.3C9.5,1,8,0.4,6.5,0.4S3.4,1,2.2,2.2c-2.3,2.3-2.3,6.1,0,8.5
	c1.2,1.2,2.7,1.8,4.2,1.8c1,0,2.1-0.3,3-0.8l2.7,2.7c0.2,0.2,0.4,0.3,0.6,0.3s0.4-0.1,0.6-0.3l0.9-0.9
	C14.6,13.1,14.6,12.5,14.3,12.2z M6.5,9.4c-0.8,0-1.6-0.3-2.1-0.9C3.8,8,3.5,7.2,3.5,6.4s0.3-1.6,0.9-2.1c0.6-0.6,1.3-0.9,2.1-0.9
	S8,3.7,8.6,4.3c0.6,0.6,0.9,1.3,0.9,2.1S9.1,8,8.6,8.5C8,9.1,7.3,9.4,6.5,9.4z"/>
</svg>
