<svg xmlns="http://www.w3.org/2000/svg" xmlns:xlink="http://www.w3.org/1999/xlink" width="23" height="23" viewBox="0 0 23 23"><defs><path id="vpbya" d="M303.04 513.18a8.05 8.05 0 0 1 7.95-8.14 8.05 8.05 0 0 1 8.09 8 8.06 8.06 0 0 1-7.96 8.14 8.05 8.05 0 0 1-8.08-8zm1.76.04a6.25 6.25 0 0 0 6.28 6.21 6.26 6.26 0 0 0-.1-12.53 6.25 6.25 0 0 0-6.18 6.32zm14.76 6.33c.14.07.28.16.4.28l5.43 5.37c.6.6.61 1.57.01 2.18-.59.61-1.56.62-2.16.02l-5.43-5.37c-.12-.12-.2-.26-.28-.4a8.09 8.09 0 0 0 2.03-2.08zm-13.23-7.3a3.77 3.77 0 0 1 3.72-3.82.48.48 0 0 1 0 .96 2.82 2.82 0 0 0-2.77 2.84c0 .27-.21.48-.47.49a.47.47 0 0 1-.48-.48z"/></defs><g><g transform="translate(-303 -505)"><use fill="#e47977" xlink:href="#vpbya"/></g></g></svg>