<svg xmlns="http://www.w3.org/2000/svg" xmlns:xlink="http://www.w3.org/1999/xlink" width="22" height="22" viewBox="0 0 22 22"><defs><path id="rs6za" d="M23.8 748.7a7.45 7.45 0 0 1 7.35-7.54 7.45 7.45 0 0 1 7.47 7.41 7.45 7.45 0 0 1-7.34 7.54 7.45 7.45 0 0 1-7.47-7.4zm1.64.04a5.78 5.78 0 0 0 5.8 5.75 5.79 5.79 0 0 0 5.7-5.85 5.78 5.78 0 0 0-5.8-5.75 5.78 5.78 0 0 0-5.7 5.85zm13.63 5.86c.13.06.26.14.37.25l5.01 4.98c.56.55.57 1.46.02 2.02a1.4 1.4 0 0 1-2 .02l-5.02-4.98c-.1-.1-.19-.23-.26-.36a7.48 7.48 0 0 0 1.88-1.93zm-12.22-6.77a3.49 3.49 0 0 1 3.43-3.53c.25 0 .44.2.45.44 0 .24-.2.44-.44.45a2.6 2.6 0 0 0-2.57 2.63c0 .25-.19.45-.43.45a.44.44 0 0 1-.44-.44z"/></defs><g><g transform="translate(-23 -741)"><use fill="#95a5a6" xlink:href="#rs6za"/></g></g></svg>