<svg xmlns="http://www.w3.org/2000/svg" xmlns:xlink="http://www.w3.org/1999/xlink" width="20" height="20" viewBox="0 0 20 20"><defs><path id="64era" d="M797.36 409.78l-.48.97c-.63 1.25-.56 1.25-1.25 1.25h-1.26c-.69 0-.62 0-1.25-1.25l-.48-.97c-.35-.11-.7-.24-1.02-.39l-1.13.38c-1.33.44-1.28.48-1.77 0l-.88-.89c-.49-.49-.44-.44 0-1.76l.27-.81a8.08 8.08 0 0 1-.89-1.95l-.97-.49c-1.25-.62-1.25-.55-1.25-1.25v-1.25c0-.69 0-.62 1.25-1.25l.97-.48c.21-.7.52-1.36.9-1.96l-.28-.83c-.44-1.33-.49-1.28 0-1.77l.88-.89c.5-.48.44-.44 1.77 0l1.18.4c.31-.14.64-.27.97-.37l.48-.97c.63-1.25.56-1.25 1.25-1.25h1.26c.69 0 .62 0 1.24 1.25l.5.97c.33.1.66.23.98.37l1.14-.38c1.33-.44 1.28-.48 1.77 0l.88.89c.49.49.44.44 0 1.77l-.27.8c.39.6.7 1.27.9 1.97l.98.48c1.25.63 1.25.56 1.25 1.25v1.25c0 .7 0 .63-1.25 1.25l-.97.5c-.22.7-.52 1.35-.9 1.96l.26.79c.44 1.32.49 1.27 0 1.76l-.88.89c-.49.48-.44.44-1.77 0l-1.12-.38c-.32.15-.66.28-1 .39z"/><path id="64erb" d="M795 398.25a3.75 3.75 0 1 1 0 7.5 3.75 3.75 0 0 1 0-7.5z"/><clipPath id="64erc"><use fill="#fff" xlink:href="#64era"/></clipPath><clipPath id="64erd"><use fill="#fff" xlink:href="#64erb"/></clipPath></defs><g><g transform="translate(-785 -392)"><use fill="#fff" xlink:href="#64era"/><use fill="#fff" fill-opacity="0" stroke="#263545" stroke-linecap="round" stroke-linejoin="round" stroke-miterlimit="50" stroke-width="4" clip-path="url(&quot;#64erc&quot;)" xlink:href="#64era"/></g><g transform="translate(-785 -392)"><use fill="#fff" xlink:href="#64erb"/><use fill="#fff" fill-opacity="0" stroke="#263545" stroke-linecap="round" stroke-linejoin="round" stroke-miterlimit="50" stroke-width="4" clip-path="url(&quot;#64erd&quot;)" xlink:href="#64erb"/></g></g></svg>