<svg xmlns="http://www.w3.org/2000/svg" xmlns:xlink="http://www.w3.org/1999/xlink" width="25" height="24" viewBox="0 0 25 24"><defs><path id="fjgua" d="M39.43 810.34l-.58 1.16c-.75 1.5-.67 1.5-1.5 1.5h-1.49c-.82 0-.74 0-1.5-1.5l-.57-1.16a9.63 9.63 0 0 1-1.22-.47l-1.35.46c-1.59.52-1.53.58-2.11 0l-1.06-1.06c-.58-.59-.53-.53 0-2.12l.32-.97a9.7 9.7 0 0 1-1.06-2.33l-1.16-.58c-1.5-.75-1.5-.67-1.5-1.5v-1.5c0-.82 0-.75 1.5-1.5l1.16-.58a9.7 9.7 0 0 1 1.07-2.34l-.33-1c-.53-1.6-.58-1.54 0-2.12l1.06-1.06c.58-.58.52-.53 2.1 0l1.42.47c.37-.17.76-.31 1.16-.43l.58-1.17c.75-1.5.67-1.5 1.5-1.5h1.49c.82 0 .74 0 1.5 1.5l.57 1.17c.4.12.8.27 1.18.44l1.37-.46c1.58-.53 1.53-.58 2.11 0l1.06 1.06c.58.59.52.53 0 2.12l-.32.96a9.7 9.7 0 0 1 1.07 2.36l1.17.59c1.5.74 1.5.67 1.5 1.5v1.49c0 .83 0 .75-1.5 1.5l-1.17.58a9.7 9.7 0 0 1-1.07 2.35l.32.95c.52 1.59.58 1.53 0 2.12l-1.06 1.06c-.58.58-.53.52-2.11 0l-1.34-.45c-.39.18-.8.33-1.2.46z"/><path id="fjgub" d="M36.6 796.53a4.49 4.49 0 1 1 0 8.97 4.49 4.49 0 0 1 0-8.97z"/><clipPath id="fjguc"><use fill="#fff" xlink:href="#fjgua"/></clipPath><clipPath id="fjgud"><use fill="#fff" xlink:href="#fjgub"/></clipPath></defs><g><g transform="translate(-24 -789)"><use fill="#fff" xlink:href="#fjgua"/><use fill="#fff" fill-opacity="0" stroke="#95a5a6" stroke-linecap="round" stroke-linejoin="round" stroke-miterlimit="50" stroke-width="4" clip-path="url(&quot;#fjguc&quot;)" xlink:href="#fjgua"/></g><g transform="translate(-24 -789)"><use fill="#fff" xlink:href="#fjgub"/><use fill="#fff" fill-opacity="0" stroke="#95a5a6" stroke-linecap="round" stroke-linejoin="round" stroke-miterlimit="50" stroke-width="4" clip-path="url(&quot;#fjgud&quot;)" xlink:href="#fjgub"/></g></g></svg>